<?xml version="1.0" standalone="no"?>
<!DOCTYPE svg PUBLIC "-//W3C//DTD SVG 20010904//EN"
 "http://www.w3.org/TR/2001/REC-SVG-20010904/DTD/svg10.dtd">
<svg version="1.0" xmlns="http://www.w3.org/2000/svg"
 width="736.000000pt" height="736.000000pt" viewBox="0 0 736.000000 736.000000"
 preserveAspectRatio="xMidYMid meet">

<g transform="translate(0.000000,736.000000) scale(0.100000,-0.100000)"
fill="#000000" stroke="none">
<path d="M3520 6109 c0 -5 5 -7 10 -4 6 3 10 8 10 11 0 2 -4 4 -10 4 -5 0 -10
-5 -10 -11z"/>
<path d="M4020 5896 c0 -2 7 -7 16 -10 8 -3 12 -2 9 4 -6 10 -25 14 -25 6z"/>
<path d="M5451 5751 c-65 -25 -183 -111 -176 -129 3 -7 0 -10 -6 -7 -5 4 -19
-4 -31 -17 -36 -41 -97 -126 -100 -139 -5 -24 -28 -41 -49 -36 -15 4 -18 2
-10 -7 10 -12 11 -56 1 -56 -3 0 -6 -12 -6 -27 -1 -16 -9 -66 -18 -113 -43
-216 30 -342 240 -414 142 -48 287 -55 423 -20 74 19 205 81 232 110 12 13 29
24 36 24 8 0 12 4 8 9 -3 5 3 12 14 16 10 3 18 13 17 23 -2 9 8 38 22 64 21
40 24 61 23 120 -3 128 -62 310 -125 387 -43 53 -145 147 -200 185 -54 37 -61
39 -149 43 -74 3 -102 0 -146 -16z m278 -56 c19 -9 71 -54 117 -99 67 -66 91
-98 123 -166 39 -80 71 -204 71 -270 0 -44 -59 -160 -105 -205 -107 -107 -353
-162 -533 -120 -114 27 -208 72 -251 121 -42 48 -53 85 -52 174 1 80 29 194
67 270 64 128 213 272 318 306 56 19 201 12 245 -11z"/>
<path d="M2846 5743 c-6 -14 -5 -15 5 -6 7 7 10 15 7 18 -3 3 -9 -2 -12 -12z"/>
<path d="M4430 5706 c0 -2 7 -7 16 -10 8 -3 12 -2 9 4 -6 10 -25 14 -25 6z"/>
<path d="M2606 5334 c-5 -14 -4 -15 9 -4 17 14 19 20 6 20 -5 0 -12 -7 -15
-16z"/>
<path d="M6116 4513 c-6 -14 -5 -15 5 -6 7 7 10 15 7 18 -3 3 -9 -2 -12 -12z"/>
<path d="M6036 4345 c-9 -26 -7 -32 5 -12 6 10 9 21 6 23 -2 3 -7 -2 -11 -11z"/>
<path d="M5975 4229 c-4 -6 -5 -12 -2 -15 2 -3 7 2 10 11 7 17 1 20 -8 4z"/>
<path d="M3577 4058 c-26 -21 -37 -61 -23 -89 9 -19 21 -25 53 -27 34 -3 44 1
62 24 26 33 27 55 2 82 -21 25 -68 29 -94 10z"/>
<path d="M3935 3875 c-14 -13 -25 -33 -25 -45 0 -27 43 -70 69 -70 23 0 69 38
72 60 8 75 -63 109 -116 55z"/>
<path d="M5994 3854 c3 -8 2 -12 -3 -9 -5 3 -12 2 -15 -3 -2 -4 52 -40 122
-80 70 -39 147 -85 171 -101 25 -17 48 -28 51 -26 4 2 6 -10 5 -28 -1 -36 -21
-76 -106 -220 -32 -54 -59 -101 -59 -103 0 -2 -16 -24 -35 -50 -35 -46 -39
-80 -6 -50 10 9 22 16 28 16 5 0 22 19 37 42 21 33 25 47 18 59 -8 12 -7 22 4
35 14 18 14 18 5 -3 -7 -13 -7 -24 -2 -28 11 -6 51 47 51 68 0 8 7 18 16 21 9
4 14 13 10 22 -3 8 -2 12 4 9 10 -6 14 7 11 33 -1 7 3 11 10 10 6 -2 25 23 41
55 40 77 34 115 -24 157 -26 19 -48 28 -60 24 -13 -4 -16 -1 -12 9 3 8 0 18
-5 22 -6 3 -9 10 -7 14 3 4 -14 5 -38 1 -30 -4 -43 -3 -43 6 0 7 7 10 16 7 9
-3 -4 7 -29 22 -38 22 -46 24 -55 12 -9 -13 -13 -13 -30 0 -19 15 -19 15 3 8
32 -9 28 13 -5 28 -16 6 -34 17 -41 24 -19 18 -35 16 -28 -3z m56 -34 c-8 -5
-19 -10 -25 -10 -5 0 -3 5 5 10 8 5 20 10 25 10 6 0 3 -5 -5 -10z m84 -55 c11
-8 15 -15 10 -15 -6 0 -19 7 -30 15 -10 8 -14 14 -9 14 6 0 19 -6 29 -14z m86
-45 c0 -5 -2 -10 -4 -10 -3 0 -8 5 -11 10 -3 6 -1 10 4 10 6 0 11 -4 11 -10z
m131 -77 c13 -16 12 -17 -3 -4 -10 7 -18 15 -18 17 0 8 8 3 21 -13z m-210
-416 c-10 -9 -11 -8 -5 6 3 10 9 15 12 12 3 -3 0 -11 -7 -18z"/>
<path d="M5655 3679 c-4 -6 -5 -12 -2 -15 2 -3 7 2 10 11 7 17 1 20 -8 4z"/>
<path d="M5545 3479 c-4 -6 -5 -12 -2 -15 2 -3 7 2 10 11 7 17 1 20 -8 4z"/>
<path d="M5466 3357 c3 -10 9 -15 12 -12 3 3 0 11 -7 18 -10 9 -11 8 -5 -6z"/>
<path d="M2237 3339 c-19 -7 -48 -42 -90 -107 -104 -159 -119 -188 -115 -224
3 -29 10 -36 67 -65 78 -40 135 -49 209 -34 117 23 175 93 176 211 1 67 -16
109 -68 165 -45 47 -128 73 -179 54z m81 -115 c31 -21 52 -66 52 -109 0 -45
-34 -81 -84 -90 -45 -9 -105 2 -112 19 -7 18 97 196 114 196 4 0 18 -7 30 -16z"/>
<path d="M5689 3332 c-14 -17 -12 -21 32 -50 27 -17 54 -30 61 -28 7 1 10 1 5
-2 -9 -5 73 -62 91 -62 6 0 12 -7 12 -16 0 -20 19 -8 29 18 7 19 8 19 24 3 9
-9 17 -22 17 -28 0 -7 -4 -6 -10 3 -8 13 -11 13 -22 1 -10 -10 -10 -12 0 -7 6
4 12 2 12 -3 0 -6 -4 -11 -10 -11 -5 0 -10 -8 -10 -17 0 -15 1 -15 13 1 9 12
20 16 33 12 10 -3 23 -5 28 -5 5 0 12 -4 15 -9 7 -11 24 -15 59 -13 15 1 21 5
16 13 -5 7 -2 9 9 5 15 -6 55 39 43 50 -2 3 -10 -4 -17 -15 -12 -19 -14 -19
-25 -4 -10 13 -15 14 -25 5 -9 -9 -20 -9 -47 2 -19 8 -38 12 -43 9 -5 -3 -9
-1 -9 4 0 5 -15 16 -32 23 -18 7 -65 32 -104 56 -39 24 -75 43 -80 43 -4 0
-17 9 -29 20 -20 19 -22 19 -36 2z m304 -167 c-3 -9 -8 -14 -10 -11 -3 3 -2 9
2 15 9 16 15 13 8 -4z"/>
<path d="M2739 3073 c-16 -18 -69 -114 -137 -246 -29 -57 -33 -72 -24 -91 14
-30 48 -42 77 -26 14 7 48 65 94 158 85 175 89 202 30 217 -17 4 -29 1 -40
-12z"/>
<path d="M5886 3073 c-6 -14 -5 -15 5 -6 7 7 10 15 7 18 -3 3 -9 -2 -12 -12z"/>
<path d="M1291 3004 c0 -11 3 -14 6 -6 3 7 2 16 -1 19 -3 4 -6 -2 -5 -13z"/>
<path d="M5756 2973 c-6 -14 -5 -15 5 -6 7 7 10 15 7 18 -3 3 -9 -2 -12 -12z"/>
<path d="M3092 2893 c-72 -38 -227 -171 -238 -205 -3 -10 2 -30 10 -43 19 -29
66 -34 87 -9 15 19 46 14 120 -17 49 -21 51 -23 44 -53 -12 -49 -8 -79 11 -93
78 -57 131 68 122 290 -4 127 -15 146 -84 144 -25 0 -57 -7 -72 -14z m56 -134
c4 -43 -11 -53 -48 -34 l-33 17 29 24 c34 28 48 26 52 -7z"/>
<path d="M3524 2739 c-41 -12 -58 -33 -51 -66 4 -20 -11 -58 -53 -143 -69
-138 -78 -172 -50 -200 40 -40 75 -22 104 54 24 63 50 63 40 1 -6 -44 -5 -47
39 -90 24 -25 42 -45 38 -45 -3 0 1 -5 9 -10 26 -17 68 -12 80 9 17 33 12 50
-30 95 -42 46 -42 56 0 56 37 0 89 38 111 80 23 43 25 130 4 171 -20 38 -78
74 -143 88 -60 12 -56 12 -98 0z m124 -125 c24 -16 27 -30 12 -68 -10 -29 -39
-34 -85 -16 -22 8 -26 15 -20 33 4 12 9 34 12 49 5 24 9 27 32 22 14 -4 36
-13 49 -20z"/>
<path d="M5616 2723 c-6 -14 -5 -15 5 -6 7 7 10 15 7 18 -3 3 -9 -2 -12 -12z"/>
<path d="M5086 2683 c-6 -14 -5 -15 5 -6 7 7 10 15 7 18 -3 3 -9 -2 -12 -12z"/>
<path d="M1630 2566 c0 -2 7 -7 16 -10 8 -3 12 -2 9 4 -6 10 -25 14 -25 6z"/>
<path d="M3950 2545 c-17 -21 -13 -151 6 -189 19 -39 19 -38 -21 -117 -40 -80
-42 -99 -17 -122 39 -35 77 -9 117 81 50 110 44 104 125 125 41 10 83 26 93
34 23 21 22 56 -2 77 -19 17 -23 17 -102 -3 -46 -12 -87 -17 -91 -13 -5 5 -12
32 -17 60 -4 28 -14 58 -21 67 -16 19 -54 19 -70 0z"/>
<path d="M5566 2513 c-6 -14 -5 -15 5 -6 7 7 10 15 7 18 -3 3 -9 -2 -12 -12z"/>
<path d="M4880 2449 c0 -5 5 -7 10 -4 6 3 10 8 10 11 0 2 -4 4 -10 4 -5 0 -10
-5 -10 -11z"/>
<path d="M2117 2349 c7 -7 15 -10 18 -7 3 3 -2 9 -12 12 -14 6 -15 5 -6 -5z"/>
<path d="M2190 2316 c0 -2 7 -7 16 -10 8 -3 12 -2 9 4 -6 10 -25 14 -25 6z"/>
<path d="M5445 2299 c-4 -6 -5 -12 -2 -15 2 -3 7 2 10 11 7 17 1 20 -8 4z"/>
<path d="M1470 2275 c0 -5 5 -17 10 -25 5 -8 10 -10 10 -5 0 6 -5 17 -10 25
-5 8 -10 11 -10 5z"/>
<path d="M1550 2190 c0 -5 5 -10 11 -10 5 0 7 5 4 10 -3 6 -8 10 -11 10 -2 0
-4 -4 -4 -10z"/>
<path d="M5360 2160 c-9 -6 -10 -10 -3 -10 6 0 15 5 18 10 8 12 4 12 -15 0z"/>
<path d="M1570 2055 c7 -9 15 -13 17 -11 7 7 -7 26 -19 26 -6 0 -6 -6 2 -15z"/>
<path d="M4710 2040 c0 -5 5 -10 11 -10 5 0 7 5 4 10 -3 6 -8 10 -11 10 -2 0
-4 -4 -4 -10z"/>
<path d="M1665 1991 c-3 -5 -2 -12 3 -15 5 -3 9 1 9 9 0 17 -3 19 -12 6z"/>
<path d="M1707 1959 c7 -7 15 -10 18 -7 3 3 -2 9 -12 12 -14 6 -15 5 -6 -5z"/>
<path d="M4656 1923 c-6 -14 -5 -15 5 -6 7 7 10 15 7 18 -3 3 -9 -2 -12 -12z"/>
<path d="M3100 1906 c0 -2 7 -7 16 -10 8 -3 12 -2 9 4 -6 10 -25 14 -25 6z"/>
<path d="M4597 1825 c-9 -19 -15 -35 -12 -35 7 0 37 61 33 66 -3 2 -12 -12
-21 -31z"/>
<path d="M4499 1673 c-13 -16 -12 -17 4 -4 16 13 21 21 13 21 -2 0 -10 -8 -17
-17z"/>
<path d="M3868 1603 c7 -3 16 -2 19 1 4 3 -2 6 -13 5 -11 0 -14 -3 -6 -6z"/>
<path d="M3818 1583 c7 -3 16 -2 19 1 4 3 -2 6 -13 5 -11 0 -14 -3 -6 -6z"/>
<path d="M2705 1570 c27 -12 43 -12 25 0 -8 5 -22 9 -30 9 -10 0 -8 -3 5 -9z"/>
<path d="M4375 1560 c-3 -6 1 -7 9 -4 18 7 21 14 7 14 -6 0 -13 -4 -16 -10z"/>
<path d="M2850 1510 c0 -5 5 -10 11 -10 5 0 7 5 4 10 -3 6 -8 10 -11 10 -2 0
-4 -4 -4 -10z"/>
<path d="M4906 1483 c-6 -14 -5 -15 5 -6 7 7 10 15 7 18 -3 3 -9 -2 -12 -12z"/>
<path d="M2967 1459 c7 -7 15 -10 18 -7 3 3 -2 9 -12 12 -14 6 -15 5 -6 -5z"/>
<path d="M4956 1453 c-6 -14 -5 -15 5 -6 7 7 10 15 7 18 -3 3 -9 -2 -12 -12z"/>
<path d="M4926 1393 c-6 -14 -5 -15 5 -6 7 7 10 15 7 18 -3 3 -9 -2 -12 -12z"/>
<path d="M3277 1319 c7 -7 15 -10 18 -7 3 3 -2 9 -12 12 -14 6 -15 5 -6 -5z"/>
<path d="M4855 1269 c-4 -6 -5 -12 -2 -15 2 -3 7 2 10 11 7 17 1 20 -8 4z"/>
<path d="M3605 1170 c3 -5 11 -10 16 -10 6 0 7 5 4 10 -3 6 -11 10 -16 10 -6
0 -7 -4 -4 -10z"/>
<path d="M4679 993 c-13 -16 -12 -17 4 -4 16 13 21 21 13 21 -2 0 -10 -8 -17
-17z"/>
<path d="M4640 950 c-6 -11 -8 -20 -6 -20 3 0 10 9 16 20 6 11 8 20 6 20 -3 0
-10 -9 -16 -20z"/>
<path d="M4505 930 c-3 -6 1 -7 9 -4 18 7 21 14 7 14 -6 0 -13 -4 -16 -10z"/>
<path d="M4596 915 c-11 -8 -15 -15 -9 -15 6 0 16 7 23 15 16 19 11 19 -14 0z"/>
<path d="M4298 893 c7 -3 16 -2 19 1 4 3 -2 6 -13 5 -11 0 -14 -3 -6 -6z"/>
</g>
</svg>
